# This file uses centimeters as units for non-parametric coordinates.

mtllib DecimalPoint_Text.mtl
g default
v 0.000000 2.880000 -1.250000
v -0.288800 2.853600 -1.250000
v -0.555040 2.774880 -1.250000
v -0.798880 2.643680 -1.250000
v -1.020000 2.460000 -1.250000
v -1.203840 2.238720 -1.250000
v -1.335040 1.994880 -1.250000
v -1.413760 1.728640 -1.250000
v -1.440000 1.440000 -1.250000
v -1.413760 1.151200 -1.250000
v -1.335040 0.884960 -1.250000
v -1.203840 0.641120 -1.250000
v -1.020000 0.420000 -1.250000
v -0.798880 0.236160 -1.250000
v -0.555040 0.105120 -1.250000
v -0.288800 0.026400 -1.250000
v 0.000000 0.000000 -1.250000
v 0.288640 0.026400 -1.250000
v 0.554880 0.105120 -1.250000
v 0.798720 0.236160 -1.250000
v 1.020000 0.420000 -1.250000
v 1.203680 0.641120 -1.250000
v 1.334880 0.884960 -1.250000
v 1.413600 1.151200 -1.250000
v 1.440000 1.440000 -1.250000
v 1.413600 1.728640 -1.250000
v 1.334880 1.994880 -1.250000
v 1.203680 2.238720 -1.250000
v 1.020000 2.460000 -1.250000
v 0.798720 2.643680 -1.250000
v 0.554880 2.774880 -1.250000
v 0.288640 2.853600 -1.250000
v 0.000000 2.880000 -0.625000
v -0.288800 2.853600 -0.625000
v -0.555040 2.774880 -0.625000
v -0.798880 2.643680 -0.625000
v -1.020000 2.460000 -0.625000
v -1.203840 2.238720 -0.625000
v -1.335040 1.994880 -0.625000
v -1.413760 1.728640 -0.625000
v -1.440000 1.440000 -0.625000
v -1.413760 1.151200 -0.625000
v -1.335040 0.884960 -0.625000
v -1.203840 0.641120 -0.625000
v -1.020000 0.420000 -0.625000
v -0.798880 0.236160 -0.625000
v -0.555040 0.105120 -0.625000
v -0.288800 0.026400 -0.625000
v 0.000000 0.000000 -0.625000
v 0.288640 0.026400 -0.625000
v 0.554880 0.105120 -0.625000
v 0.798720 0.236160 -0.625000
v 1.020000 0.420000 -0.625000
v 1.203680 0.641120 -0.625000
v 1.334880 0.884960 -0.625000
v 1.413600 1.151200 -0.625000
v 1.440000 1.440000 -0.625000
v 1.413600 1.728640 -0.625000
v 1.334880 1.994880 -0.625000
v 1.203680 2.238720 -0.625000
v 1.020000 2.460000 -0.625000
v 0.798720 2.643680 -0.625000
v 0.554880 2.774880 -0.625000
v 0.288640 2.853600 -0.625000
v 0.000000 2.880000 0.000000
v -0.288800 2.853600 0.000000
v -0.555040 2.774880 0.000000
v -0.798880 2.643680 0.000000
v -1.020000 2.460000 0.000000
v -1.203840 2.238720 0.000000
v -1.335040 1.994880 0.000000
v -1.413760 1.728640 0.000000
v -1.440000 1.440000 0.000000
v -1.413760 1.151200 0.000000
v -1.335040 0.884960 0.000000
v -1.203840 0.641120 0.000000
v -1.020000 0.420000 0.000000
v -0.798880 0.236160 0.000000
v -0.555040 0.105120 0.000000
v -0.288800 0.026400 0.000000
v 0.000000 0.000000 0.000000
v 0.288640 0.026400 0.000000
v 0.554880 0.105120 0.000000
v 0.798720 0.236160 0.000000
v 1.020000 0.420000 0.000000
v 1.203680 0.641120 0.000000
v 1.334880 0.884960 0.000000
v 1.413600 1.151200 0.000000
v 1.440000 1.440000 0.000000
v 1.413600 1.728640 0.000000
v 1.334880 1.994880 0.000000
v 1.203680 2.238720 0.000000
v 1.020000 2.460000 0.000000
v 0.798720 2.643680 0.000000
v 0.554880 2.774880 0.000000
v 0.288640 2.853600 0.000000
v 0.000000 2.880000 0.625000
v -0.288800 2.853600 0.625000
v -0.555040 2.774880 0.625000
v -0.798880 2.643680 0.625000
v -1.020000 2.460000 0.625000
v -1.203840 2.238720 0.625000
v -1.335040 1.994880 0.625000
v -1.413760 1.728640 0.625000
v -1.440000 1.440000 0.625000
v -1.413760 1.151200 0.625000
v -1.335040 0.884960 0.625000
v -1.203840 0.641120 0.625000
v -1.020000 0.420000 0.625000
v -0.798880 0.236160 0.625000
v -0.555040 0.105120 0.625000
v -0.288800 0.026400 0.625000
v 0.000000 0.000000 0.625000
v 0.288640 0.026400 0.625000
v 0.554880 0.105120 0.625000
v 0.798720 0.236160 0.625000
v 1.020000 0.420000 0.625000
v 1.203680 0.641120 0.625000
v 1.334880 0.884960 0.625000
v 1.413600 1.151200 0.625000
v 1.440000 1.440000 0.625000
v 1.413600 1.728640 0.625000
v 1.334880 1.994880 0.625000
v 1.203680 2.238720 0.625000
v 1.020000 2.460000 0.625000
v 0.798720 2.643680 0.625000
v 0.554880 2.774880 0.625000
v 0.288640 2.853600 0.625000
v 0.000000 2.880000 1.250000
v -0.288800 2.853600 1.250000
v -0.555040 2.774880 1.250000
v -0.798880 2.643680 1.250000
v -1.020000 2.460000 1.250000
v -1.203840 2.238720 1.250000
v -1.335040 1.994880 1.250000
v -1.413760 1.728640 1.250000
v -1.440000 1.440000 1.250000
v -1.413760 1.151200 1.250000
v -1.335040 0.884960 1.250000
v -1.203840 0.641120 1.250000
v -1.020000 0.420000 1.250000
v -0.798880 0.236160 1.250000
v -0.555040 0.105120 1.250000
v -0.288800 0.026400 1.250000
v 0.000000 0.000000 1.250000
v 0.288640 0.026400 1.250000
v 0.554880 0.105120 1.250000
v 0.798720 0.236160 1.250000
v 1.020000 0.420000 1.250000
v 1.203680 0.641120 1.250000
v 1.334880 0.884960 1.250000
v 1.413600 1.151200 1.250000
v 1.440000 1.440000 1.250000
v 1.413600 1.728640 1.250000
v 1.334880 1.994880 1.250000
v 1.203680 2.238720 1.250000
v 1.020000 2.460000 1.250000
v 0.798720 2.643680 1.250000
v 0.554880 2.774880 1.250000
v 0.288640 2.853600 1.250000
v 0.909360 2.551840 -1.250000
v -0.144400 2.866800 -1.250000
v 0.676800 2.709280 -1.250000
v 0.144320 2.866800 -1.250000
vt 0.675583 0.680650
vt 0.644993 0.680650
vt 0.644993 0.602243
vt 0.675583 0.602243
vt 0.611592 0.680650
vt 0.611592 0.602243
vt 0.644993 0.523836
vt 0.675583 0.523836
vt 0.703342 0.680650
vt 0.703342 0.602243
vt 0.575382 0.680650
vt 0.575382 0.602243
vt 0.611592 0.523836
vt 0.644993 0.445429
vt 0.675583 0.445429
vt 0.703342 0.523836
vt 0.726385 0.680650
vt 0.726385 0.602243
vt 0.539152 0.680650
vt 0.539152 0.602243
vt 0.575382 0.523836
vt 0.611592 0.445429
vt 0.644993 0.367022
vt 0.675583 0.367022
vt 0.703342 0.445429
vt 0.726385 0.523836
vt 0.505752 0.680650
vt 0.505752 0.602243
vt 0.539152 0.523836
vt 0.575382 0.445429
vt 0.611592 0.367022
vt 0.703342 0.367022
vt 0.726385 0.445429
vt 0.475161 0.680650
vt 0.475161 0.602243
vt 0.505752 0.523836
vt 0.539152 0.445429
vt 0.575382 0.367022
vt 0.726385 0.367022
vt 0.447422 0.680650
vt 0.447422 0.602243
vt 0.475161 0.523836
vt 0.505752 0.445429
vt 0.539152 0.367022
vt 0.424359 0.680650
vt 0.424359 0.602243
vt 0.447422 0.523836
vt 0.475161 0.445429
vt 0.505752 0.367022
vt 0.424359 0.523836
vt 0.447422 0.445429
vt 0.475161 0.367022
vt 0.424359 0.445429
vt 0.447422 0.367022
vt 0.424359 0.367022
vt 0.052664 0.684380
vt 0.083254 0.684380
vt 0.083254 0.762787
vt 0.052664 0.762787
vt 0.116654 0.684380
vt 0.116654 0.762787
vt 0.083254 0.841194
vt 0.052664 0.841194
vt 0.024924 0.684380
vt 0.024924 0.762787
vt 0.152885 0.684380
vt 0.152885 0.762787
vt 0.116654 0.841194
vt 0.083254 0.919601
vt 0.052664 0.919601
vt 0.024924 0.841194
vt 0.001861 0.684380
vt 0.001861 0.762787
vt 0.189095 0.684380
vt 0.189095 0.762787
vt 0.152885 0.841194
vt 0.116654 0.919601
vt 0.083254 0.998008
vt 0.052664 0.998008
vt 0.024924 0.919601
vt 0.001861 0.841194
vt 0.222495 0.684380
vt 0.222495 0.762787
vt 0.189095 0.841194
vt 0.152885 0.919601
vt 0.116654 0.998008
vt 0.024924 0.998008
vt 0.001861 0.919601
vt 0.253085 0.684380
vt 0.253085 0.762787
vt 0.222495 0.841194
vt 0.189095 0.919601
vt 0.152885 0.998008
vt 0.001861 0.998008
vt 0.280845 0.684380
vt 0.280845 0.762787
vt 0.253085 0.841194
vt 0.222495 0.919601
vt 0.189095 0.998008
vt 0.303888 0.684380
vt 0.303888 0.762787
vt 0.280845 0.841194
vt 0.253085 0.919601
vt 0.222495 0.998008
vt 0.303888 0.841194
vt 0.280845 0.919601
vt 0.253085 0.998008
vt 0.303888 0.919601
vt 0.280845 0.998008
vt 0.303888 0.998008
vt 0.832339 0.680650
vt 0.796108 0.680650
vt 0.796108 0.602243
vt 0.832339 0.602243
vt 0.762708 0.680650
vt 0.762708 0.602243
vt 0.796108 0.523836
vt 0.832339 0.523836
vt 0.868549 0.680650
vt 0.868549 0.602243
vt 0.732118 0.680650
vt 0.732118 0.602243
vt 0.762708 0.523836
vt 0.796108 0.445429
vt 0.832339 0.445429
vt 0.868549 0.523836
vt 0.901949 0.680650
vt 0.901949 0.602243
vt 0.732118 0.523836
vt 0.762708 0.445429
vt 0.796108 0.367022
vt 0.832339 0.367022
vt 0.868549 0.445429
vt 0.901949 0.523836
vt 0.932539 0.680650
vt 0.932539 0.602243
vt 0.732118 0.445429
vt 0.762708 0.367022
vt 0.868549 0.367022
vt 0.901949 0.445429
vt 0.932539 0.523836
vt 0.732118 0.367022
vt 0.901949 0.367022
vt 0.932539 0.445429
vt 0.932539 0.367022
vt 0.218205 0.367022
vt 0.248795 0.367022
vt 0.248795 0.445429
vt 0.218205 0.445429
vt 0.282195 0.367022
vt 0.282195 0.445429
vt 0.248795 0.523836
vt 0.218205 0.523836
vt 0.318425 0.367022
vt 0.318425 0.445429
vt 0.282195 0.523836
vt 0.248795 0.602243
vt 0.218205 0.602243
vt 0.354636 0.367022
vt 0.354636 0.445429
vt 0.318425 0.523836
vt 0.282195 0.602243
vt 0.248795 0.680650
vt 0.218205 0.680650
vt 0.388036 0.367022
vt 0.388036 0.445429
vt 0.354636 0.523836
vt 0.318425 0.602243
vt 0.282195 0.680650
vt 0.418626 0.367022
vt 0.418626 0.445429
vt 0.388036 0.523836
vt 0.354636 0.602243
vt 0.318425 0.680650
vt 0.418626 0.523836
vt 0.388036 0.602243
vt 0.354636 0.680650
vt 0.418626 0.602243
vt 0.388036 0.680650
vt 0.418626 0.680650
vt 0.005173 0.146432
vt 0.015049 0.113032
vt 0.031508 0.082442
vt 0.054551 0.054682
vt 0.082311 0.031639
vt 0.112901 0.015180
vt 0.146301 0.005304
vt 0.182511 0.001992
vt 0.218742 0.005304
vt 0.252142 0.015180
vt 0.282732 0.031639
vt 0.310472 0.054682
vt 0.333535 0.082442
vt 0.349974 0.113032
vt 0.359849 0.146432
vt 0.363161 0.182642
vt 0.359849 0.218872
vt 0.349974 0.252273
vt 0.333535 0.282863
vt 0.310472 0.310602
vt 0.282732 0.333665
vt 0.252142 0.350125
vt 0.218742 0.360000
vt 0.182511 0.363292
vt 0.146301 0.360000
vt 0.112901 0.350125
vt 0.082311 0.333665
vt 0.054551 0.310602
vt 0.031508 0.282863
vt 0.015049 0.252273
vt 0.005173 0.218872
vt 0.001861 0.182642
vt 0.731206 0.182642
vt 0.727894 0.218872
vt 0.718019 0.252273
vt 0.701559 0.282863
vt 0.678517 0.310602
vt 0.650757 0.333665
vt 0.620167 0.350125
vt 0.586766 0.360000
vt 0.550556 0.363292
vt 0.514326 0.360000
vt 0.480926 0.350125
vt 0.450336 0.333665
vt 0.422596 0.310602
vt 0.399533 0.282863
vt 0.383094 0.252273
vt 0.373218 0.218872
vt 0.369906 0.182642
vt 0.373218 0.146432
vt 0.383094 0.113032
vt 0.399533 0.082442
vt 0.422596 0.054682
vt 0.450336 0.031639
vt 0.480926 0.015180
vt 0.514326 0.005304
vt 0.550556 0.001992
vt 0.586766 0.005304
vt 0.620167 0.015180
vt 0.650757 0.031639
vt 0.678517 0.054682
vt 0.701559 0.082442
vt 0.718019 0.113032
vt 0.727894 0.146432
vt 0.043029 0.068562
vt 0.292367 0.684380
vt 0.003517 0.200757
vt 0.814224 0.680650
vt 0.023278 0.097737
vt 0.917244 0.680650
vt 0.003517 0.164537
vt 0.850444 0.680650
vn 0.000000 0.000000 -1.000000
vn 0.000000 0.000000 -1.000000
vn 0.000000 0.000000 -1.000000
vn 0.000000 0.000000 -1.000000
vn -0.000000 1.000000 0.000000
vn -0.091033 0.995848 0.000000
vn -0.186084 0.982534 0.000000
vn -0.186084 0.982534 0.000000
vn -0.000000 1.000000 0.000000
vn -0.380575 0.924750 0.000000
vn -0.380575 0.924750 0.000000
vn -0.560735 0.827996 0.000000
vn -0.560735 0.827996 0.000000
vn -0.707107 0.707107 0.000000
vn -0.707107 0.707107 0.000000
vn -0.827953 0.560798 0.000000
vn -0.827953 0.560798 0.000000
vn -0.924750 0.380575 0.000000
vn -0.924750 0.380575 0.000000
vn -0.982576 0.185862 0.000000
vn -0.982576 0.185862 0.000000
vn -1.000000 0.000000 0.000000
vn -1.000000 0.000000 0.000000
vn -0.982586 -0.185810 0.000000
vn -0.982586 -0.185810 0.000000
vn -0.924750 -0.380575 0.000000
vn -0.924750 -0.380575 0.000000
vn -0.827863 -0.560930 0.000000
vn -0.827863 -0.560930 0.000000
vn -0.707107 -0.707107 0.000000
vn -0.707107 -0.707107 0.000000
vn -0.560735 -0.827995 0.000000
vn -0.560735 -0.827995 0.000000
vn -0.380327 -0.924852 0.000000
vn -0.380327 -0.924852 0.000000
vn -0.186084 -0.982534 0.000000
vn -0.186084 -0.982534 0.000000
vn -0.000000 -1.000000 0.000000
vn -0.000000 -1.000000 0.000000
vn 0.186136 -0.982524 0.000000
vn 0.186136 -0.982524 0.000000
vn 0.380327 -0.924852 0.000000
vn 0.380327 -0.924852 0.000000
vn 0.560603 -0.828085 0.000000
vn 0.560603 -0.828085 0.000000
vn 0.707107 -0.707107 0.000000
vn 0.707107 -0.707107 0.000000
vn 0.827995 -0.560735 0.000000
vn 0.827995 -0.560735 0.000000
vn 0.924750 -0.380575 0.000000
vn 0.924750 -0.380575 0.000000
vn 0.982534 -0.186084 0.000000
vn 0.982534 -0.186084 0.000000
vn 1.000000 0.000000 0.000000
vn 1.000000 0.000000 0.000000
vn 0.982524 0.186136 0.000000
vn 0.982524 0.186136 0.000000
vn 0.924750 0.380575 0.000000
vn 0.924750 0.380575 0.000000
vn 0.828085 0.560603 0.000000
vn 0.828085 0.560603 0.000000
vn 0.707107 0.707107 0.000000
vn 0.707107 0.707107 0.000000
vn 0.638705 0.769451 0.000000
vn 0.560602 0.828085 -0.000000
vn 0.560602 0.828085 -0.000000
vn 0.473824 0.880619 -0.000000
vn 0.380575 0.924750 -0.000000
vn 0.380575 0.924750 -0.000000
vn 0.186136 0.982524 0.000000
vn 0.186136 0.982524 0.000000
vn 0.091083 0.995843 0.000000
vn -0.186084 0.982534 0.000000
vn -0.000000 1.000000 0.000000
vn -0.380575 0.924750 0.000000
vn -0.560735 0.827996 0.000000
vn -0.707107 0.707107 0.000000
vn -0.827953 0.560798 0.000000
vn -0.924750 0.380575 0.000000
vn -0.982576 0.185862 0.000000
vn -1.000000 0.000000 0.000000
vn -0.982586 -0.185810 0.000000
vn -0.924750 -0.380575 0.000000
vn -0.827863 -0.560930 0.000000
vn -0.707107 -0.707107 0.000000
vn -0.560735 -0.827995 0.000000
vn -0.380327 -0.924852 0.000000
vn -0.186084 -0.982534 0.000000
vn 0.000000 -1.000000 0.000000
vn 0.186136 -0.982524 0.000000
vn 0.380327 -0.924852 0.000000
vn 0.560603 -0.828085 0.000000
vn 0.707107 -0.707107 0.000000
vn 0.827995 -0.560735 0.000000
vn 0.924750 -0.380575 0.000000
vn 0.982534 -0.186084 0.000000
vn 1.000000 0.000000 0.000000
vn 0.982524 0.186136 0.000000
vn 0.924750 0.380575 0.000000
vn 0.828085 0.560603 0.000000
vn 0.707107 0.707107 0.000000
vn 0.560602 0.828085 0.000000
vn 0.380575 0.924750 0.000000
vn 0.186136 0.982524 0.000000
vn -0.186084 0.982534 0.000000
vn -0.000000 1.000000 0.000000
vn -0.380575 0.924750 0.000000
vn -0.560735 0.827996 0.000000
vn -0.707107 0.707107 0.000000
vn -0.827953 0.560798 0.000000
vn -0.924750 0.380575 0.000000
vn -0.982576 0.185862 0.000000
vn -1.000000 0.000000 0.000000
vn -0.982586 -0.185810 0.000000
vn -0.924750 -0.380575 0.000000
vn -0.827863 -0.560930 0.000000
vn -0.707107 -0.707107 0.000000
vn -0.560735 -0.827995 0.000000
vn -0.380327 -0.924852 0.000000
vn -0.186084 -0.982534 0.000000
vn 0.000000 -1.000000 0.000000
vn 0.186136 -0.982524 0.000000
vn 0.380327 -0.924852 0.000000
vn 0.560603 -0.828085 0.000000
vn 0.707107 -0.707107 0.000000
vn 0.827995 -0.560735 0.000000
vn 0.924750 -0.380575 0.000000
vn 0.982534 -0.186084 0.000000
vn 1.000000 0.000000 0.000000
vn 0.982524 0.186136 0.000000
vn 0.924750 0.380575 0.000000
vn 0.828085 0.560603 0.000000
vn 0.707107 0.707107 0.000000
vn 0.560602 0.828085 0.000000
vn 0.380575 0.924750 0.000000
vn 0.186136 0.982524 0.000000
vn -0.186084 0.982534 0.000000
vn -0.000000 1.000000 0.000000
vn -0.380575 0.924750 0.000000
vn -0.560735 0.827996 0.000000
vn -0.707107 0.707107 0.000000
vn -0.827953 0.560798 0.000000
vn -0.924750 0.380575 0.000000
vn -0.982576 0.185862 0.000000
vn -1.000000 0.000000 0.000000
vn -0.982586 -0.185810 0.000000
vn -0.924750 -0.380575 0.000000
vn -0.827863 -0.560930 0.000000
vn -0.707107 -0.707107 0.000000
vn -0.560735 -0.827995 0.000000
vn -0.380327 -0.924852 0.000000
vn -0.186084 -0.982534 0.000000
vn -0.000000 -1.000000 0.000000
vn 0.186136 -0.982524 0.000000
vn 0.380327 -0.924852 0.000000
vn 0.560603 -0.828085 0.000000
vn 0.707107 -0.707107 0.000000
vn 0.827995 -0.560735 0.000000
vn 0.924750 -0.380575 0.000000
vn 0.982534 -0.186084 0.000000
vn 1.000000 0.000000 0.000000
vn 0.982524 0.186136 0.000000
vn 0.924750 0.380575 0.000000
vn 0.828085 0.560603 0.000000
vn 0.707107 0.707107 0.000000
vn 0.560602 0.828085 0.000000
vn 0.380575 0.924750 0.000000
vn 0.186136 0.982524 0.000000
vn 0.000000 0.000000 1.000000
vn 0.000000 0.000000 1.000000
vn 0.000000 0.000000 1.000000
vn 0.000000 0.000000 1.000000
vn 0.000000 0.000000 1.000000
vn 0.000000 0.000000 1.000000
vn 0.000000 0.000000 1.000000
vn 0.000000 0.000000 1.000000
vn 0.000000 0.000000 1.000000
vn 0.000000 0.000000 1.000000
vn 0.000000 0.000000 1.000000
vn 0.000000 0.000000 1.000000
vn 0.000000 0.000000 1.000000
vn 0.000000 0.000000 1.000000
vn 0.000000 0.000000 1.000000
vn 0.000000 0.000000 1.000000
vn 0.000000 0.000000 1.000000
vn 0.000000 0.000000 1.000000
vn 0.000000 0.000000 1.000000
vn 0.000000 0.000000 1.000000
vn 0.000000 0.000000 1.000000
vn 0.000000 0.000000 1.000000
vn 0.000000 0.000000 1.000000
vn 0.000000 0.000000 1.000000
vn 0.000000 0.000000 1.000000
vn 0.000000 0.000000 1.000000
vn 0.000000 0.000000 1.000000
vn 0.000000 0.000000 1.000000
vn 0.000000 0.000000 1.000000
vn 0.000000 0.000000 1.000000
vn 0.000000 0.000000 1.000000
vn 0.000000 0.000000 1.000000
vn 0.000000 0.000000 -1.000000
vn 0.000000 0.000000 -1.000000
vn 0.000000 0.000000 -1.000000
vn 0.000000 0.000000 -1.000000
vn 0.000000 0.000000 -1.000000
vn 0.000000 0.000000 -1.000000
vn 0.000000 0.000000 -1.000000
vn 0.000000 0.000000 -1.000000
vn 0.000000 0.000000 -1.000000
vn 0.000000 0.000000 -1.000000
vn 0.000000 0.000000 -1.000000
vn 0.000000 0.000000 -1.000000
vn 0.000000 0.000000 -1.000000
vn 0.000000 0.000000 -1.000000
vn 0.000000 0.000000 -1.000000
vn 0.000000 0.000000 -1.000000
vn 0.000000 0.000000 -1.000000
vn 0.000000 0.000000 -1.000000
vn 0.000000 0.000000 -1.000000
vn 0.000000 0.000000 -1.000000
vn 0.000000 0.000000 -1.000000
vn 0.000000 0.000000 -1.000000
vn 0.000000 0.000000 -1.000000
vn 0.000000 0.000000 -1.000000
vn 0.000000 0.000000 -1.000000
vn 0.000000 0.000000 -1.000000
vn 0.000000 0.000000 -1.000000
vn 0.000000 0.000000 -1.000000
vn 0.000000 0.000000 -1.000000
vn 0.000000 0.000000 -1.000000
vn 0.000000 0.000000 -1.000000
vn 0.000000 0.000000 -1.000000
s 1
g typeMesh1
usemtl typeStandardSurfaceSG
f 32/181/1 31/182/2 163/249/3 164/251/4
s 2
f 1/111/5 162/248/6 2/112/7 34/113/8 33/114/9
f 2/112/7 3/115/10 35/116/11 34/113/8
f 3/115/10 4/121/12 36/122/13 35/116/11
f 4/17/12 5/9/14 37/10/15 36/18/13
f 5/9/14 6/1/16 38/4/17 37/10/15
f 6/1/16 7/2/18 39/3/19 38/4/17
f 7/2/18 8/5/20 40/6/21 39/3/19
f 8/5/20 9/11/22 41/12/23 40/6/21
f 9/11/22 10/19/24 42/20/25 41/12/23
f 10/19/24 11/27/26 43/28/27 42/20/25
f 11/27/26 12/34/28 44/35/29 43/28/27
f 12/34/28 13/40/30 45/41/31 44/35/29
f 13/40/30 14/45/32 46/46/33 45/41/31
f 14/146/32 15/147/34 47/148/35 46/149/33
f 15/147/34 16/150/36 48/151/37 47/148/35
f 16/150/36 17/154/38 49/155/39 48/151/37
f 17/154/38 18/159/40 50/160/41 49/155/39
f 18/159/40 19/165/42 51/166/43 50/160/41
f 19/165/42 20/170/44 52/171/45 51/166/43
f 20/72/44 21/64/46 53/65/47 52/73/45
f 21/64/46 22/56/48 54/59/49 53/65/47
f 22/56/48 23/57/50 55/58/51 54/59/49
f 23/57/50 24/60/52 56/61/53 55/58/51
f 24/60/52 25/66/54 57/67/55 56/61/53
f 25/66/54 26/74/56 58/75/57 57/67/55
f 26/74/56 27/82/58 59/83/59 58/75/57
f 27/82/58 28/89/60 60/90/61 59/83/59
f 28/89/60 29/95/62 61/96/63 60/90/61
f 29/95/62 161/246/64 30/100/65 62/101/66 61/96/63
f 30/135/65 163/250/67 31/127/68 63/128/69 62/136/66
f 31/127/68 32/119/70 64/120/71 63/128/69
f 32/119/70 164/252/72 1/111/5 33/114/9 64/120/71
f 33/114/9 34/113/8 66/117/73 65/118/74
f 34/113/8 35/116/11 67/123/75 66/117/73
f 35/116/11 36/122/13 68/129/76 67/123/75
f 36/18/13 37/10/15 69/16/77 68/26/76
f 37/10/15 38/4/17 70/8/78 69/16/77
f 38/4/17 39/3/19 71/7/79 70/8/78
f 39/3/19 40/6/21 72/13/80 71/7/79
f 40/6/21 41/12/23 73/21/81 72/13/80
f 41/12/23 42/20/25 74/29/82 73/21/81
f 42/20/25 43/28/27 75/36/83 74/29/82
f 43/28/27 44/35/29 76/42/84 75/36/83
f 44/35/29 45/41/31 77/47/85 76/42/84
f 45/41/31 46/46/33 78/50/86 77/47/85
f 46/149/33 47/148/35 79/152/87 78/153/86
f 47/148/35 48/151/37 80/156/88 79/152/87
f 48/151/37 49/155/39 81/161/89 80/156/88
f 49/155/39 50/160/41 82/167/90 81/161/89
f 50/160/41 51/166/43 83/172/91 82/167/90
f 51/166/43 52/171/45 84/175/92 83/172/91
f 52/73/45 53/65/47 85/71/93 84/81/92
f 53/65/47 54/59/49 86/63/94 85/71/93
f 54/59/49 55/58/51 87/62/95 86/63/94
f 55/58/51 56/61/53 88/68/96 87/62/95
f 56/61/53 57/67/55 89/76/97 88/68/96
f 57/67/55 58/75/57 90/84/98 89/76/97
f 58/75/57 59/83/59 91/91/99 90/84/98
f 59/83/59 60/90/61 92/97/100 91/91/99
f 60/90/61 61/96/63 93/102/101 92/97/100
f 61/96/63 62/101/66 94/105/102 93/102/101
f 62/136/66 63/128/69 95/134/103 94/141/102
f 63/128/69 64/120/71 96/126/104 95/134/103
f 64/120/71 33/114/9 65/118/74 96/126/104
f 65/118/74 66/117/73 98/124/105 97/125/106
f 66/117/73 67/123/75 99/130/107 98/124/105
f 67/123/75 68/129/76 100/137/108 99/130/107
f 68/26/76 69/16/77 101/25/109 100/33/108
f 69/16/77 70/8/78 102/15/110 101/25/109
f 70/8/78 71/7/79 103/14/111 102/15/110
f 71/7/79 72/13/80 104/22/112 103/14/111
f 72/13/80 73/21/81 105/30/113 104/22/112
f 73/21/81 74/29/82 106/37/114 105/30/113
f 74/29/82 75/36/83 107/43/115 106/37/114
f 75/36/83 76/42/84 108/48/116 107/43/115
f 76/42/84 77/47/85 109/51/117 108/48/116
f 77/47/85 78/50/86 110/53/118 109/51/117
f 78/153/86 79/152/87 111/157/119 110/158/118
f 79/152/87 80/156/88 112/162/120 111/157/119
f 80/156/88 81/161/89 113/168/121 112/162/120
f 81/161/89 82/167/90 114/173/122 113/168/121
f 82/167/90 83/172/91 115/176/123 114/173/122
f 83/172/91 84/175/92 116/178/124 115/176/123
f 84/81/92 85/71/93 117/80/125 116/88/124
f 85/71/93 86/63/94 118/70/126 117/80/125
f 86/63/94 87/62/95 119/69/127 118/70/126
f 87/62/95 88/68/96 120/77/128 119/69/127
f 88/68/96 89/76/97 121/85/129 120/77/128
f 89/76/97 90/84/98 122/92/130 121/85/129
f 90/84/98 91/91/99 123/98/131 122/92/130
f 91/91/99 92/97/100 124/103/132 123/98/131
f 92/97/100 93/102/101 125/106/133 124/103/132
f 93/102/101 94/105/102 126/108/134 125/106/133
f 94/141/102 95/134/103 127/140/135 126/144/134
f 95/134/103 96/126/104 128/133/136 127/140/135
f 96/126/104 65/118/74 97/125/106 128/133/136
f 97/125/106 98/124/105 130/131/137 129/132/138
f 98/124/105 99/130/107 131/138/139 130/131/137
f 99/130/107 100/137/108 132/142/140 131/138/139
f 100/33/108 101/25/109 133/32/141 132/39/140
f 101/25/109 102/15/110 134/24/142 133/32/141
f 102/15/110 103/14/111 135/23/143 134/24/142
f 103/14/111 104/22/112 136/31/144 135/23/143
f 104/22/112 105/30/113 137/38/145 136/31/144
f 105/30/113 106/37/114 138/44/146 137/38/145
f 106/37/114 107/43/115 139/49/147 138/44/146
f 107/43/115 108/48/116 140/52/148 139/49/147
f 108/48/116 109/51/117 141/54/149 140/52/148
f 109/51/117 110/53/118 142/55/150 141/54/149
f 110/158/118 111/157/119 143/163/151 142/164/150
f 111/157/119 112/162/120 144/169/152 143/163/151
f 112/162/120 113/168/121 145/174/153 144/169/152
f 113/168/121 114/173/122 146/177/154 145/174/153
f 114/173/122 115/176/123 147/179/155 146/177/154
f 115/176/123 116/178/124 148/180/156 147/179/155
f 116/88/124 117/80/125 149/87/157 148/94/156
f 117/80/125 118/70/126 150/79/158 149/87/157
f 118/70/126 119/69/127 151/78/159 150/79/158
f 119/69/127 120/77/128 152/86/160 151/78/159
f 120/77/128 121/85/129 153/93/161 152/86/160
f 121/85/129 122/92/130 154/99/162 153/93/161
f 122/92/130 123/98/131 155/104/163 154/99/162
f 123/98/131 124/103/132 156/107/164 155/104/163
f 124/103/132 125/106/133 157/109/165 156/107/164
f 125/106/133 126/108/134 158/110/166 157/109/165
f 126/144/134 127/140/135 159/143/167 158/145/166
f 127/140/135 128/133/136 160/139/168 159/143/167
f 128/133/136 97/125/106 129/132/138 160/139/168
s off
f 129/213/169 130/214/170 131/215/171 132/216/172 133/217/173 134/218/174 135/219/175 136/220/176 137/221/177 138/222/178 139/223/179 140/224/180 141/225/181 142/226/182 143/227/183 144/228/184 145/229/185 146/230/186 147/231/187 148/232/188 149/233/189 150/234/190 151/235/191 152/236/192 153/237/193 154/238/194 155/239/195 156/240/196 157/241/197 158/242/198 159/243/199 160/244/200
s 1
f 162/247/201 161/245/202 29/184/203 28/185/204 27/186/205 26/187/206 25/188/207 24/189/208 23/190/209 22/191/210 21/192/211 20/193/212 19/194/213 18/195/214 17/196/215 16/197/216 15/198/217 14/199/218 13/200/219 12/201/220 11/202/221 10/203/222 9/204/223 8/205/224 7/206/225 6/207/226 5/208/227 4/209/228 3/210/229 2/211/230
f 164/251/4 163/249/3 30/183/231 161/245/202 162/247/201 1/212/232
