# Blender v2.93.4 OBJ File: ''
# www.blender.org
v -1.462580 -0.132696 -0.486357
v -1.538228 -0.057047 -0.562005
v -1.472454 -0.132048 -0.496231
v -1.482159 -0.130118 -0.505936
v -1.491529 -0.126937 -0.515306
v -1.500404 -0.122561 -0.524181
v -1.508632 -0.117063 -0.532409
v -1.516071 -0.110539 -0.539848
v -1.522596 -0.103099 -0.546373
v -1.528093 -0.094871 -0.551870
v -1.532470 -0.085997 -0.556247
v -1.535651 -0.076626 -0.559428
v -1.537581 -0.066921 -0.561358
v -1.462580 0.398944 -0.486357
v -1.538228 0.323296 -0.562005
v -1.472454 0.398297 -0.496231
v -1.482159 0.396367 -0.505936
v -1.491529 0.393186 -0.515306
v -1.500404 0.388809 -0.524181
v -1.508632 0.383312 -0.532409
v -1.516071 0.376787 -0.539848
v -1.522596 0.369348 -0.546373
v -1.528093 0.361120 -0.551870
v -1.532470 0.352245 -0.556247
v -1.535651 0.342875 -0.559428
v -1.537581 0.333170 -0.561358
v -1.462580 -0.132696 0.486357
v -1.538228 -0.057047 0.562005
v -1.472454 -0.132048 0.496231
v -1.482159 -0.130118 0.505936
v -1.491529 -0.126937 0.515306
v -1.500404 -0.122561 0.524181
v -1.508632 -0.117063 0.532409
v -1.516071 -0.110539 0.539848
v -1.522596 -0.103099 0.546373
v -1.528093 -0.094871 0.551870
v -1.532470 -0.085997 0.556247
v -1.535651 -0.076626 0.559428
v -1.537581 -0.066921 0.561358
v -1.462580 0.398944 0.486357
v -1.538228 0.323296 0.562005
v -1.472454 0.398297 0.496231
v -1.482159 0.396367 0.505936
v -1.491529 0.393186 0.515306
v -1.500404 0.388809 0.524181
v -1.508632 0.383312 0.532409
v -1.516071 0.376787 0.539848
v -1.522596 0.369348 0.546373
v -1.528093 0.361120 0.551870
v -1.532470 0.352245 0.556247
v -1.535651 0.342875 0.559428
v -1.537581 0.333170 0.561358
v 1.462580 -0.132696 -0.486357
v 1.538228 -0.057047 -0.562005
v 1.472454 -0.132048 -0.496231
v 1.482159 -0.130118 -0.505936
v 1.491529 -0.126937 -0.515306
v 1.500404 -0.122561 -0.524181
v 1.508632 -0.117063 -0.532409
v 1.516071 -0.110539 -0.539848
v 1.522596 -0.103099 -0.546373
v 1.528093 -0.094871 -0.551870
v 1.532470 -0.085997 -0.556247
v 1.535651 -0.076626 -0.559428
v 1.537581 -0.066921 -0.561358
v 1.462580 0.398944 -0.486357
v 1.538228 0.323296 -0.562005
v 1.472454 0.398297 -0.496231
v 1.482159 0.396367 -0.505936
v 1.491529 0.393186 -0.515306
v 1.500404 0.388809 -0.524181
v 1.508632 0.383312 -0.532409
v 1.516071 0.376787 -0.539848
v 1.522596 0.369348 -0.546373
v 1.528093 0.361120 -0.551870
v 1.532470 0.352245 -0.556247
v 1.535651 0.342875 -0.559428
v 1.537581 0.333170 -0.561358
v 1.462580 -0.132696 0.486357
v 1.538228 -0.057047 0.562005
v 1.472454 -0.132048 0.496231
v 1.482159 -0.130118 0.505936
v 1.491529 -0.126937 0.515306
v 1.500404 -0.122561 0.524181
v 1.508632 -0.117063 0.532409
v 1.516071 -0.110539 0.539848
v 1.522596 -0.103099 0.546373
v 1.528093 -0.094871 0.551870
v 1.532470 -0.085997 0.556247
v 1.535651 -0.076626 0.559428
v 1.537581 -0.066921 0.561358
v 1.462580 0.398944 0.486357
v 1.538228 0.323296 0.562005
v 1.472454 0.398297 0.496231
v 1.482159 0.396367 0.505936
v 1.491529 0.393186 0.515306
v 1.500404 0.388809 0.524181
v 1.508632 0.383312 0.532409
v 1.516071 0.376787 0.539848
v 1.522596 0.369348 0.546373
v 1.528093 0.361120 0.551870
v 1.532470 0.352245 0.556247
v 1.535651 0.342875 0.559428
v 1.537581 0.333170 0.561358
vt 0.410573 1.000000
vt 0.589427 0.750000
vt 0.410573 0.750000
vt 0.589427 0.500000
vt 0.410573 0.500000
vt 0.631147 0.733174
vt 0.868853 0.516826
vt 0.631147 0.516826
vt 0.410573 0.250000
vt 0.589427 0.000000
vt 0.410573 0.000000
vt 0.589427 0.250000
vt 0.130345 0.514629
vt 0.131147 0.733174
vt 0.131147 0.516826
vt 0.129556 0.512471
vt 0.130345 0.735371
vt 0.128795 0.739613
vt 0.129556 0.737529
vt 0.128074 0.508413
vt 0.128795 0.510387
vt 0.127405 0.743417
vt 0.128074 0.741587
vt 0.125000 0.504928
vt 0.127405 0.506583
vt 0.388918 0.246523
vt 0.375000 0.004928
vt 0.375000 0.245072
vt 0.392787 0.247746
vt 0.388918 0.003477
vt 0.396960 0.248719
vt 0.392787 0.002254
vt 0.401366 0.249427
vt 0.396960 0.001281
vt 0.405930 0.249856
vt 0.401366 0.000573
vt 0.405930 0.000144
vt 0.869655 0.735371
vt 0.868853 0.733174
vt 0.870444 0.737529
vt 0.869655 0.514629
vt 0.871205 0.510387
vt 0.870444 0.512471
vt 0.871926 0.741587
vt 0.871205 0.739613
vt 0.872595 0.506583
vt 0.871926 0.508413
vt 0.875000 0.745072
vt 0.872595 0.743417
vt 0.611082 0.003477
vt 0.625000 0.245072
vt 0.625000 0.004928
vt 0.607213 0.002254
vt 0.611082 0.246523
vt 0.603040 0.001281
vt 0.607213 0.247746
vt 0.598634 0.000573
vt 0.603040 0.248719
vt 0.594070 0.000144
vt 0.598634 0.249427
vt 0.594070 0.249856
vt 0.369655 0.514629
vt 0.368853 0.516826
vt 0.370444 0.512471
vt 0.371205 0.510387
vt 0.371926 0.508413
vt 0.372595 0.506583
vt 0.373199 0.500000
vt 0.388918 0.498730
vt 0.375000 0.251801
vt 0.375000 0.498199
vt 0.392787 0.499176
vt 0.388918 0.251270
vt 0.396960 0.250468
vt 0.392787 0.250824
vt 0.401366 0.499791
vt 0.396960 0.499532
vt 0.405930 0.250053
vt 0.401366 0.250209
vt 0.405930 0.499947
vt 0.630345 0.514629
vt 0.629556 0.512471
vt 0.628795 0.510387
vt 0.628074 0.508413
vt 0.873199 0.500000
vt 0.627405 0.506583
vt 0.611082 0.251270
vt 0.625000 0.498199
vt 0.625000 0.251801
vt 0.607213 0.250824
vt 0.611082 0.498730
vt 0.603040 0.499532
vt 0.607213 0.499176
vt 0.598634 0.250209
vt 0.603040 0.250468
vt 0.594070 0.499947
vt 0.598634 0.499791
vt 0.594070 0.250053
vt 0.369655 0.735371
vt 0.368853 0.733174
vt 0.370444 0.737529
vt 0.371926 0.741587
vt 0.371205 0.739613
vt 0.375000 0.745072
vt 0.372595 0.743417
vt 0.388918 0.746523
vt 0.375000 0.504928
vt 0.392787 0.747746
vt 0.388918 0.503477
vt 0.396960 0.748719
vt 0.392787 0.502254
vt 0.401366 0.749427
vt 0.396960 0.501281
vt 0.405930 0.749856
vt 0.401366 0.500573
vt 0.405930 0.500144
vt 0.630345 0.735371
vt 0.628795 0.739613
vt 0.629556 0.737529
vt 0.627405 0.743417
vt 0.628074 0.741587
vt 0.625000 0.504928
vt 0.611082 0.503477
vt 0.625000 0.745072
vt 0.607213 0.502254
vt 0.611082 0.746523
vt 0.603040 0.501281
vt 0.607213 0.747746
vt 0.598634 0.500573
vt 0.603040 0.748719
vt 0.594070 0.500144
vt 0.598634 0.749427
vt 0.594070 0.749856
vt 0.126801 0.750000
vt 0.388918 0.998730
vt 0.375000 0.751801
vt 0.375000 0.998199
vt 0.392787 0.999176
vt 0.388918 0.751270
vt 0.396960 0.750468
vt 0.392787 0.750824
vt 0.401366 0.999791
vt 0.396960 0.999532
vt 0.405930 0.750053
vt 0.401366 0.750209
vt 0.405930 0.999947
vt 0.626801 0.750000
vt 0.611082 0.751270
vt 0.625000 0.998199
vt 0.625000 0.751801
vt 0.607213 0.750824
vt 0.611082 0.998730
vt 0.603040 0.999532
vt 0.607213 0.999176
vt 0.598634 0.750209
vt 0.603040 0.750468
vt 0.594070 0.999947
vt 0.598634 0.999791
vt 0.594070 0.750053
vt 0.589427 1.000000
vt 0.125000 0.745072
vt 0.875000 0.504928
vt 0.126801 0.500000
vt 0.626801 0.500000
vt 0.373199 0.750000
vt 0.873199 0.750000
vn 0.0000 0.0000 -1.0000
vn 1.0000 0.0000 0.0000
vn 0.0000 1.0000 0.0000
vn -1.0000 0.0000 0.0000
vn 0.0000 0.0000 1.0000
vn -0.0654 -0.9979 0.0000
vn -0.1951 -0.9808 0.0000
vn -0.3214 -0.9469 0.0000
vn -0.4423 -0.8969 0.0000
vn -0.5556 -0.8315 0.0000
vn -0.6594 -0.7518 0.0000
vn -0.7518 -0.6594 0.0000
vn -0.8315 -0.5556 0.0000
vn -0.8969 -0.4423 0.0000
vn -0.9469 -0.3214 0.0000
vn -0.9808 -0.1951 0.0000
vn -0.9979 -0.0654 0.0000
vn -0.0654 0.9979 0.0000
vn -0.1951 0.9808 0.0000
vn -0.3214 0.9469 0.0000
vn -0.4423 0.8969 0.0000
vn -0.5556 0.8315 0.0000
vn -0.6594 0.7518 0.0000
vn -0.7518 0.6594 0.0000
vn -0.8315 0.5556 0.0000
vn -0.8969 0.4423 0.0000
vn -0.9469 0.3214 0.0000
vn -0.9808 0.1951 0.0000
vn -0.9979 0.0654 0.0000
vn 0.0000 -0.9979 0.0654
vn 0.0000 -0.9808 0.1951
vn 0.0000 -0.9469 0.3214
vn 0.0000 -0.8969 0.4423
vn 0.0000 -0.8315 0.5556
vn 0.0000 -0.7518 0.6593
vn 0.0000 -0.6593 0.7518
vn 0.0000 -0.5556 0.8315
vn 0.0000 -0.4423 0.8969
vn 0.0000 -0.3214 0.9469
vn 0.0000 -0.1951 0.9808
vn 0.0000 -0.0654 0.9979
vn 0.0000 0.9979 0.0654
vn 0.0000 0.9808 0.1951
vn 0.0000 0.9469 0.3214
vn 0.0000 0.8969 0.4423
vn 0.0000 0.8315 0.5556
vn 0.0000 0.7518 0.6593
vn 0.0000 0.6593 0.7518
vn 0.0000 0.5556 0.8315
vn 0.0000 0.4423 0.8969
vn 0.0000 0.3214 0.9469
vn 0.0000 0.1951 0.9808
vn 0.0000 0.0654 0.9979
vn 0.0654 -0.9979 0.0000
vn 0.1951 -0.9808 0.0000
vn 0.3214 -0.9469 0.0000
vn 0.4423 -0.8969 0.0000
vn 0.5556 -0.8315 0.0000
vn 0.6594 -0.7518 0.0000
vn 0.7518 -0.6594 0.0000
vn 0.8315 -0.5556 0.0000
vn 0.8969 -0.4423 0.0000
vn 0.9469 -0.3214 0.0000
vn 0.9808 -0.1951 0.0000
vn 0.9979 -0.0654 0.0000
vn 0.0654 0.9979 0.0000
vn 0.1951 0.9808 0.0000
vn 0.3214 0.9469 0.0000
vn 0.4423 0.8969 0.0000
vn 0.5556 0.8315 0.0000
vn 0.6594 0.7518 0.0000
vn 0.7518 0.6594 0.0000
vn 0.8315 0.5556 0.0000
vn 0.8969 0.4423 0.0000
vn 0.9469 0.3214 0.0000
vn 0.9808 0.1951 0.0000
vn 0.9979 0.0654 0.0000
vn 0.0000 -0.9979 -0.0654
vn 0.0000 -0.9808 -0.1951
vn 0.0000 -0.9469 -0.3214
vn 0.0000 -0.8969 -0.4423
vn 0.0000 -0.8315 -0.5556
vn 0.0000 -0.7518 -0.6593
vn 0.0000 -0.6593 -0.7518
vn 0.0000 -0.5556 -0.8315
vn 0.0000 -0.4423 -0.8969
vn 0.0000 -0.3214 -0.9469
vn 0.0000 -0.1951 -0.9808
vn 0.0000 -0.0654 -0.9979
vn 0.0000 0.9979 -0.0654
vn 0.0000 0.9808 -0.1951
vn 0.0000 0.9469 -0.3214
vn 0.0000 0.8969 -0.4423
vn 0.0000 0.8315 -0.5556
vn 0.0000 0.7518 -0.6593
vn 0.0000 0.6593 -0.7518
vn 0.0000 0.5556 -0.8315
vn 0.0000 0.4423 -0.8969
vn 0.0000 0.3214 -0.9469
vn 0.0000 0.1951 -0.9808
vn 0.0000 0.0654 -0.9979
vn 0.0000 -1.0000 0.0000
vn -0.6593 -0.7518 0.0000
vn -0.7518 -0.6593 0.0000
vn -0.9469 -0.3215 0.0000
vn -0.6593 0.7518 0.0000
vn -0.7518 0.6593 0.0000
vn -0.9469 0.3215 0.0000
vn 0.6593 -0.7518 0.0000
vn 0.7518 -0.6593 0.0000
vn 0.9469 -0.3215 0.0000
vn 0.6593 0.7518 0.0000
vn 0.7518 0.6593 0.0000
vn 0.9469 0.3215 0.0000
s off
f 2/1/1 67/2/1 54/3/1
f 54/3/2 93/4/2 80/5/2
f 66/6/3 40/7/3 92/8/3
f 28/9/4 15/10/4 2/11/4
f 80/5/5 41/12/5 28/9/5
f 29/13/6 1/14/6 27/15/6
f 30/16/7 3/17/7 29/13/7
f 30/16/8 5/18/8 4/19/8
f 32/20/9 5/18/9 31/21/9
f 32/20/10 7/22/10 6/23/10
f 34/24/11 7/22/11 33/25/11
f 35/26/12 8/27/12 34/28/12
f 36/29/13 9/30/13 35/26/13
f 37/31/14 10/32/14 36/29/14
f 38/33/15 11/34/15 37/31/15
f 39/35/16 12/36/16 38/33/16
f 28/9/17 13/37/17 39/35/17
f 16/38/18 40/7/18 14/39/18
f 17/40/19 42/41/19 16/38/19
f 17/40/20 44/42/20 43/43/20
f 19/44/21 44/42/21 18/45/21
f 19/44/22 46/46/22 45/47/22
f 21/48/23 46/46/23 20/49/23
f 22/50/24 47/51/24 21/52/24
f 23/53/25 48/54/25 22/50/25
f 24/55/26 49/56/26 23/53/26
f 25/57/27 50/58/27 24/55/27
f 26/59/28 51/60/28 25/57/28
f 15/10/29 52/61/29 26/59/29
f 81/62/30 27/15/30 79/63/30
f 82/64/31 29/13/31 81/62/31
f 83/65/32 30/16/32 82/64/32
f 84/66/33 31/21/33 83/65/33
f 85/67/34 32/20/34 84/66/34
f 86/68/35 33/25/35 85/67/35
f 87/69/36 34/70/36 86/71/36
f 88/72/37 35/73/37 87/69/37
f 88/72/38 37/74/38 36/75/38
f 90/76/39 37/74/39 89/77/39
f 90/76/40 39/78/40 38/79/40
f 80/5/41 39/78/41 91/80/41
f 42/41/42 92/8/42 40/7/42
f 43/43/43 94/81/43 42/41/43
f 44/42/44 95/82/44 43/43/44
f 45/47/45 96/83/45 44/42/45
f 46/46/46 97/84/46 45/47/46
f 47/85/47 98/86/47 46/46/47
f 48/87/48 99/88/48 47/89/48
f 49/90/49 100/91/49 48/87/49
f 49/90/50 102/92/50 101/93/50
f 51/94/51 102/92/51 50/95/51
f 51/94/52 104/96/52 103/97/52
f 41/12/53 104/96/53 52/98/53
f 55/99/54 79/63/54 53/100/54
f 56/101/55 81/62/55 55/99/55
f 56/101/56 83/65/56 82/64/56
f 58/102/57 83/65/57 57/103/57
f 58/102/58 85/67/58 84/66/58
f 60/104/59 85/67/59 59/105/59
f 61/106/60 86/107/60 60/104/60
f 62/108/61 87/109/61 61/106/61
f 63/110/62 88/111/62 62/108/62
f 64/112/63 89/113/63 63/110/63
f 65/114/64 90/115/64 64/112/64
f 54/3/65 91/116/65 65/114/65
f 94/81/66 66/6/66 92/8/66
f 95/82/67 68/117/67 94/81/67
f 95/82/68 70/118/68 69/119/68
f 97/84/69 70/118/69 96/83/69
f 97/84/70 72/120/70 71/121/70
f 99/122/71 72/120/71 98/86/71
f 100/123/72 73/124/72 99/122/72
f 101/125/73 74/126/73 100/123/73
f 102/127/74 75/128/74 101/125/74
f 103/129/75 76/130/75 102/127/75
f 104/131/76 77/132/76 103/129/76
f 93/4/77 78/133/77 104/131/77
f 3/17/78 53/100/78 1/14/78
f 4/19/79 55/99/79 3/17/79
f 5/18/80 56/101/80 4/19/80
f 6/23/81 57/103/81 5/18/81
f 7/22/82 58/102/82 6/23/82
f 8/134/83 59/105/83 7/22/83
f 9/135/84 60/136/84 8/137/84
f 10/138/85 61/139/85 9/135/85
f 10/138/86 63/140/86 62/141/86
f 12/142/87 63/140/87 11/143/87
f 12/142/88 65/144/88 64/145/88
f 2/1/89 65/144/89 13/146/89
f 68/117/90 14/39/90 66/6/90
f 69/119/91 16/38/91 68/117/91
f 70/118/92 17/40/92 69/119/92
f 71/121/93 18/45/93 70/118/93
f 72/120/94 19/44/94 71/121/94
f 73/147/95 20/49/95 72/120/95
f 74/148/96 21/149/96 73/150/96
f 75/151/97 22/152/97 74/148/97
f 75/151/98 24/153/98 23/154/98
f 77/155/99 24/153/99 76/156/99
f 77/155/100 26/157/100 25/158/100
f 67/2/101 26/157/101 78/159/101
f 1/14/102 79/63/102 27/15/102
f 2/1/1 15/160/1 67/2/1
f 54/3/2 67/2/2 93/4/2
f 66/6/3 14/39/3 40/7/3
f 28/9/4 41/12/4 15/10/4
f 80/5/5 93/4/5 41/12/5
f 29/13/6 3/17/6 1/14/6
f 30/16/7 4/19/7 3/17/7
f 30/16/8 31/21/8 5/18/8
f 32/20/9 6/23/9 5/18/9
f 32/20/10 33/25/10 7/22/10
f 34/24/103 8/161/103 7/22/103
f 35/26/104 9/30/104 8/27/104
f 36/29/13 10/32/13 9/30/13
f 37/31/14 11/34/14 10/32/14
f 38/33/105 12/36/105 11/34/105
f 39/35/16 13/37/16 12/36/16
f 28/9/17 2/11/17 13/37/17
f 16/38/18 42/41/18 40/7/18
f 17/40/19 43/43/19 42/41/19
f 17/40/20 18/45/20 44/42/20
f 19/44/21 45/47/21 44/42/21
f 19/44/22 20/49/22 46/46/22
f 21/48/106 47/162/106 46/46/106
f 22/50/107 48/54/107 47/51/107
f 23/53/25 49/56/25 48/54/25
f 24/55/26 50/58/26 49/56/26
f 25/57/108 51/60/108 50/58/108
f 26/59/28 52/61/28 51/60/28
f 15/10/29 41/12/29 52/61/29
f 81/62/30 29/13/30 27/15/30
f 82/64/31 30/16/31 29/13/31
f 83/65/32 31/21/32 30/16/32
f 84/66/33 32/20/33 31/21/33
f 85/67/34 33/25/34 32/20/34
f 86/68/35 34/163/35 33/25/35
f 87/69/36 35/73/36 34/70/36
f 88/72/37 36/75/37 35/73/37
f 88/72/38 89/77/38 37/74/38
f 90/76/39 38/79/39 37/74/39
f 90/76/40 91/80/40 39/78/40
f 80/5/41 28/9/41 39/78/41
f 42/41/42 94/81/42 92/8/42
f 43/43/43 95/82/43 94/81/43
f 44/42/44 96/83/44 95/82/44
f 45/47/45 97/84/45 96/83/45
f 46/46/46 98/86/46 97/84/46
f 47/85/47 99/164/47 98/86/47
f 48/87/48 100/91/48 99/88/48
f 49/90/49 101/93/49 100/91/49
f 49/90/50 50/95/50 102/92/50
f 51/94/51 103/97/51 102/92/51
f 51/94/52 52/98/52 104/96/52
f 41/12/53 93/4/53 104/96/53
f 55/99/54 81/62/54 79/63/54
f 56/101/55 82/64/55 81/62/55
f 56/101/56 57/103/56 83/65/56
f 58/102/57 84/66/57 83/65/57
f 58/102/58 59/105/58 85/67/58
f 60/104/109 86/107/109 85/67/109
f 61/106/110 87/109/110 86/107/110
f 62/108/61 88/111/61 87/109/61
f 63/110/62 89/113/62 88/111/62
f 64/112/111 90/115/111 89/113/111
f 65/114/64 91/116/64 90/115/64
f 54/3/65 80/5/65 91/116/65
f 94/81/66 68/117/66 66/6/66
f 95/82/67 69/119/67 68/117/67
f 95/82/68 96/83/68 70/118/68
f 97/84/69 71/121/69 70/118/69
f 97/84/70 98/86/70 72/120/70
f 99/122/112 73/124/112 72/120/112
f 100/123/113 74/126/113 73/124/113
f 101/125/73 75/128/73 74/126/73
f 102/127/74 76/130/74 75/128/74
f 103/129/114 77/132/114 76/130/114
f 104/131/76 78/133/76 77/132/76
f 93/4/77 67/2/77 78/133/77
f 3/17/78 55/99/78 53/100/78
f 4/19/79 56/101/79 55/99/79
f 5/18/80 57/103/80 56/101/80
f 6/23/81 58/102/81 57/103/81
f 7/22/82 59/105/82 58/102/82
f 8/134/83 60/165/83 59/105/83
f 9/135/84 61/139/84 60/136/84
f 10/138/85 62/141/85 61/139/85
f 10/138/86 11/143/86 63/140/86
f 12/142/87 64/145/87 63/140/87
f 12/142/88 13/146/88 65/144/88
f 2/1/89 54/3/89 65/144/89
f 68/117/90 16/38/90 14/39/90
f 69/119/91 17/40/91 16/38/91
f 70/118/92 18/45/92 17/40/92
f 71/121/93 19/44/93 18/45/93
f 72/120/94 20/49/94 19/44/94
f 73/147/95 21/166/95 20/49/95
f 74/148/96 22/152/96 21/149/96
f 75/151/97 23/154/97 22/152/97
f 75/151/98 76/156/98 24/153/98
f 77/155/99 25/158/99 24/153/99
f 77/155/100 78/159/100 26/157/100
f 67/2/101 15/160/101 26/157/101
f 1/14/102 53/100/102 79/63/102
