# This file uses centimeters as units for non-parametric coordinates.

mtllib Number7_Text.mtl
g default
v 5.506721 10.800000 -1.250000
v -2.333280 10.800000 -1.250000
v -2.333280 8.560000 -1.250000
v 2.693280 8.560000 -1.250000
v -1.306720 0.000000 -1.250000
v 1.306720 0.000000 -1.250000
v 5.506721 9.200001 -1.250000
v 5.506721 10.800000 -0.625000
v -2.333280 10.800000 -0.625000
v -2.333280 8.560000 -0.625000
v 2.693280 8.560000 -0.625000
v -1.306720 0.000000 -0.625000
v 1.306720 0.000000 -0.625000
v 5.506721 9.200001 -0.625000
v 5.506721 10.800000 0.000000
v -2.333280 10.800000 0.000000
v -2.333280 8.560000 0.000000
v 2.693280 8.560000 0.000000
v -1.306720 0.000000 0.000000
v 1.306720 0.000000 0.000000
v 5.506721 9.200001 0.000000
v 5.506721 10.800000 0.625000
v -2.333280 10.800000 0.625000
v -2.333280 8.560000 0.625000
v 2.693280 8.560000 0.625000
v -1.306720 0.000000 0.625000
v 1.306720 0.000000 0.625000
v 5.506721 9.200001 0.625000
v 5.506721 10.800000 1.250000
v -2.333280 10.800000 1.250000
v -2.333280 8.560000 1.250000
v 2.693280 8.560000 1.250000
v -1.306720 0.000000 1.250000
v 1.306720 0.000000 1.250000
v 5.506721 9.200001 1.250000
v 0.000000 0.000000 1.250000
v 0.000000 0.000000 0.625000
v 0.000000 0.000000 0.000000
v 0.000000 0.000000 -0.625000
v 0.000000 0.000000 -1.250000
vt 0.425184 0.687442
vt 0.310388 0.687442
vt 0.310388 0.655412
vt 0.425184 0.655412
vt 0.310388 0.623381
vt 0.425184 0.623381
vt 0.310388 0.591351
vt 0.425184 0.591351
vt 0.310388 0.559321
vt 0.425184 0.559321
vt 0.833187 0.998008
vt 0.833187 0.559321
vt 0.865217 0.559321
vt 0.865217 0.998008
vt 0.897248 0.559321
vt 0.897248 0.998008
vt 0.929278 0.559321
vt 0.929278 0.998008
vt 0.961308 0.559321
vt 0.961308 0.998008
vt 0.539476 0.001992
vt 0.539476 0.473478
vt 0.507445 0.473478
vt 0.507445 0.001992
vt 0.539476 0.555476
vt 0.507445 0.555476
vt 0.475415 0.473478
vt 0.475415 0.001992
vt 0.475415 0.555476
vt 0.443385 0.473478
vt 0.443385 0.001992
vt 0.443385 0.555476
vt 0.411354 0.473478
vt 0.411354 0.001992
vt 0.411354 0.555476
vt 0.827277 0.559321
vt 0.827277 0.961109
vt 0.795247 0.961109
vt 0.795247 0.559321
vt 0.763217 0.961109
vt 0.763217 0.559321
vt 0.731186 0.961109
vt 0.731186 0.559321
vt 0.699156 0.961109
vt 0.699156 0.559321
vt 0.565125 0.816924
vt 0.565125 0.559321
vt 0.597155 0.559321
vt 0.597155 0.816924
vt 0.629186 0.559321
vt 0.629186 0.816924
vt 0.661216 0.559321
vt 0.661216 0.816924
vt 0.693246 0.559321
vt 0.693246 0.816924
vt 0.431094 0.693256
vt 0.431094 0.559321
vt 0.463124 0.559321
vt 0.463124 0.693256
vt 0.495155 0.559321
vt 0.495155 0.693256
vt 0.527185 0.559321
vt 0.527185 0.693256
vt 0.559215 0.559321
vt 0.559215 0.693256
vt 0.403707 0.083990
vt 0.188463 0.555476
vt 0.054528 0.555476
vt 0.259522 0.116789
vt 0.001919 0.116789
vt 0.001919 0.001992
vt 0.403707 0.001992
vt 0.948307 0.555476
vt 0.546519 0.555476
vt 0.546519 0.440679
vt 0.804122 0.440679
vt 0.599128 0.001992
vt 0.733063 0.001992
vt 0.948307 0.473478
vt 0.559215 0.626288
vt 0.666096 0.001992
vt 0.527185 0.626288
vt 0.495155 0.626288
vt 0.463124 0.626288
vt 0.121496 0.555476
vt 0.431094 0.626288
vn 0.000000 0.000000 -1.000000
vn 0.000000 0.000000 -1.000000
vn 0.000000 0.000000 -1.000000
vn 0.000000 0.000000 -1.000000
vn 0.000000 0.000000 -1.000000
vn 0.000000 0.000000 -1.000000
vn 0.000000 0.000000 -1.000000
vn 0.000000 0.000000 -1.000000
vn 0.000000 1.000000 0.000000
vn 0.000000 1.000000 0.000000
vn 0.000000 1.000000 0.000000
vn 0.000000 1.000000 0.000000
vn -1.000000 0.000000 0.000000
vn -1.000000 0.000000 0.000000
vn -1.000000 0.000000 0.000000
vn -1.000000 0.000000 0.000000
vn 0.000000 -1.000000 0.000000
vn 0.000000 -1.000000 0.000000
vn 0.000000 -1.000000 0.000000
vn 0.000000 -1.000000 0.000000
vn -0.905967 0.423349 0.000000
vn -0.905967 0.423349 0.000000
vn -0.905967 0.423349 0.000000
vn -0.905967 0.423349 0.000000
vn 0.000000 -1.000000 0.000000
vn 0.000000 -1.000000 0.000000
vn 0.000000 -1.000000 0.000000
vn 0.000000 -1.000000 0.000000
vn 0.909688 -0.415292 0.000000
vn 0.932005 -0.362446 0.000000
vn 0.932005 -0.362446 0.000000
vn 0.909688 -0.415292 0.000000
vn 1.000000 0.000000 0.000000
vn 1.000000 0.000000 0.000000
vn 0.000000 1.000000 0.000000
vn 0.000000 1.000000 0.000000
vn -1.000000 0.000000 0.000000
vn -1.000000 0.000000 0.000000
vn 0.000000 -1.000000 0.000000
vn 0.000000 -1.000000 0.000000
vn -0.905967 0.423349 0.000000
vn -0.905967 0.423349 0.000000
vn 0.000000 -1.000000 0.000000
vn 0.000000 -1.000000 0.000000
vn 0.932005 -0.362446 0.000000
vn 0.909688 -0.415292 0.000000
vn 1.000000 0.000000 0.000000
vn 0.000000 1.000000 0.000000
vn 0.000000 1.000000 0.000000
vn -1.000000 0.000000 0.000000
vn -1.000000 0.000000 0.000000
vn 0.000000 -1.000000 0.000000
vn 0.000000 -1.000000 0.000000
vn -0.905967 0.423349 0.000000
vn -0.905967 0.423349 0.000000
vn 0.000000 -1.000000 0.000000
vn 0.000000 -1.000000 0.000000
vn 0.932005 -0.362446 0.000000
vn 0.909688 -0.415292 0.000000
vn 1.000000 0.000000 0.000000
vn 0.000000 1.000000 0.000000
vn 0.000000 1.000000 0.000000
vn -1.000000 0.000000 0.000000
vn -1.000000 0.000000 0.000000
vn 0.000000 -1.000000 0.000000
vn 0.000000 -1.000000 0.000000
vn -0.905967 0.423349 0.000000
vn -0.905967 0.423349 0.000000
vn 0.000000 -1.000000 0.000000
vn 0.000000 -1.000000 0.000000
vn 0.932005 -0.362446 0.000000
vn 0.909688 -0.415292 0.000000
vn 1.000000 0.000000 0.000000
vn -0.000000 0.000000 1.000000
vn -0.000000 0.000000 1.000000
vn -0.000000 0.000000 1.000000
vn -0.000000 0.000000 1.000000
vn -0.000000 0.000000 1.000000
vn -0.000000 0.000000 1.000000
vn -0.000000 0.000000 1.000000
vn -0.000000 0.000000 1.000000
vn 0.000000 -1.000000 0.000000
vn 0.000000 -1.000000 0.000000
vn 0.000000 -1.000000 0.000000
vn 0.000000 -1.000000 0.000000
vn 0.000000 -1.000000 0.000000
s off
g typeMesh1
usemtl typeStandardSurfaceSG
f 7/66/1 6/67/2 40/85/3 5/68/4 4/69/5 3/70/6 2/71/7 1/72/8
s 1
f 1/36/9 2/37/10 9/38/11 8/39/12
s 2
f 2/1/13 3/2/14 10/3/15 9/4/16
s 3
f 3/46/17 4/47/18 11/48/19 10/49/20
s 4
f 4/11/21 5/12/22 12/13/23 11/14/24
s 5
f 40/86/25 6/57/26 13/58/27 39/84/28
s 6
f 6/21/29 7/22/30 14/23/31 13/24/32
f 7/22/30 1/25/33 8/26/34 14/23/31
s 1
f 8/39/12 9/38/11 16/40/35 15/41/36
s 2
f 9/4/16 10/3/15 17/5/37 16/6/38
s 3
f 10/49/20 11/48/19 18/50/39 17/51/40
s 4
f 11/14/24 12/13/23 19/15/41 18/16/42
s 5
f 39/84/28 13/58/27 20/60/43 38/83/44
s 6
f 13/24/32 14/23/31 21/27/45 20/28/46
f 14/23/31 8/26/34 15/29/47 21/27/45
s 1
f 15/41/36 16/40/35 23/42/48 22/43/49
s 2
f 16/6/38 17/5/37 24/7/50 23/8/51
s 3
f 17/51/40 18/50/39 25/52/52 24/53/53
s 4
f 18/16/42 19/15/41 26/17/54 25/18/55
s 5
f 38/83/44 20/60/43 27/62/56 37/82/57
s 6
f 20/28/46 21/27/45 28/30/58 27/31/59
f 21/27/45 15/29/47 22/32/60 28/30/58
s 1
f 22/43/49 23/42/48 30/44/61 29/45/62
s 2
f 23/8/51 24/7/50 31/9/63 30/10/64
s 3
f 24/53/53 25/52/52 32/54/65 31/55/66
s 4
f 25/18/55 26/17/54 33/19/67 32/20/68
s 5
f 37/82/57 27/62/56 34/64/69 36/80/70
s 6
f 27/31/59 28/30/58 35/33/71 34/34/72
f 28/30/58 22/32/60 29/35/73 35/33/71
s off
f 29/73/74 30/74/75 31/75/76 32/76/77 33/77/78 36/81/79 34/78/80 35/79/81
s 5
f 26/63/82 37/82/57 36/80/70 33/65/83
f 19/61/84 38/83/44 37/82/57 26/63/82
f 12/59/85 39/84/28 38/83/44 19/61/84
f 5/56/86 40/86/25 39/84/28 12/59/85
